<?xml version="1.0" encoding="UTF-8"?><svg id="Layer_2" xmlns="http://www.w3.org/2000/svg" viewBox="0 0 111.89 119.48"><defs><style>.cls-1{fill:#062e85;}.cls-2{fill:#04a9e5;}</style></defs><g id="Layer_1-2"><path class="cls-2" d="m60.46,119.34c-8.38.71-16.36-1.28-23.93-4.38-7.42-3.04-13.61-8.05-19.37-13.78-7.56-7.52-12.23-16.5-15.12-26.48C.43,69.18-.46,63.33.24,57.59c1.04-8.62,2.55-17.07,6.81-25.01,5.08-9.47,11.65-17.1,20.75-22.87,5.43-3.44,11.21-5.56,17.26-7.48C53.12-.31,61.29-.47,69.38.7c6.66.96,13.16,3.13,19.2,6.47,6.88,3.8,12.77,8.75,17.94,14.57,2.06,2.33,3.54,5.12,5.03,7.85.5.91.44,1.81-.11,2.75-.6,1.04-1.45,1.95-1.53,3.3-.03.51-.4,1.33-1.19,1.46-.97.16-1.01-.69-1.23-1.26-2.03-5.17-5.62-9.31-9.49-13.06-5.37-5.21-11.53-9.19-18.59-12.17-6.74-2.85-13.5-3.84-20.55-3.66-11.15.28-21.26,3.54-30.19,10.55-8.21,6.44-13.78,14.54-18.03,23.99-3.58,7.97-3.84,16.17-3.21,24.41.52,6.81,2.57,13.46,6.2,19.38,4.28,6.98,9.47,13.07,16.3,17.93,4.33,3.08,9.02,5.11,13.74,7.22,2.21.98,4.74,1.36,7.16,1.71,12.67,1.85,24.69-.13,35.84-6.52,7.17-4.1,13.51-9.16,17.69-16.47.57-.99,1.22-.94,2.05-.68.22.07.37.34.58.45,4.41,2.27,4.45,3.05,1.22,6.97-6.38,7.74-13.79,14.19-23,18.32-4.68,2.1-9.42,3.93-14.65,4.58-3.39.42-6.75.46-10.12.56Z"/><path class="cls-1" d="m45.25,59.87c2.63,1.23,4.33.08,5.92-2.45,1.18-1.87,3.56-1.55,4.63.49,1.11,2.11,2.85,2.45,4.88,2.44.98,0,1.98-.22,2.87.43.9.65,1.63,1.16,1.06,2.6-.9,2.3-.13,4.18,2.1,5.43,1.71.97,1.69,3.49.1,4.64-1.93,1.39-3.3,3.03-2.06,5.64.46.96.09,1.77-.87,2.28-.92.49-1.3,1.87-2.91,1.15-2.63-1.16-4.06-.7-5.1,1.85-.69,1.7-2.12,1.43-3.2,1.74-.89.25-1.63-.96-2.03-1.85-.8-1.79-2.04-2.39-3.99-2.03-1.17.21-2.51.4-3.59-.43-.88-.68-1.7-1.16-1.17-2.77.72-2.2.45-4.4-2.42-5.3-1.37-.43-.81-1.81-.89-2.82-.07-.93.04-1.66,1.16-2.14,2.63-1.12,3.23-2.92,2.11-5.5-.58-1.32,1.41-3.47,3.39-3.4Zm2.85,11.18c0,2.5,1.96,5.2,3.82,5.26,3.93.11,6.61-1.97,6.63-5.18.02-2.15-2.09-4.29-4.22-4.3-4.78-.02-6.22.96-6.24,4.22Z"/><path class="cls-1" d="m55.6,43.74c2.52-.87,2.63-2.89,2.36-5.04-.41-3.31.79-4.25,4.11-3.37,1.72.45,3-.77,4.04-1.87,2.79-2.95,3.79-2.95,5.92.36.99,1.54,2.44,1.64,4.04,1.32,2.93-.6,4.64.93,3.96,3.74-.53,2.2.39,3.51,2.14,4.53,2.54,1.48,2.48,3.75-.03,5.33-1.77,1.12-3.08,2.55-1.81,4.89.55,1.02.23,1.89-.58,2.68-.93.9-2.06,1.91-3.26,1.22-2.57-1.47-4.11-.15-5.27,1.74-.78,1.28-1.66,1.59-3.01,1.6-1.4,0-1.39-1.04-1.86-1.88-1.01-1.8-2.61-2.49-4.68-1.95-2.82.74-4.1-.35-3.72-3.23.33-2.5.09-4.52-2.72-5.62-1.75-.68-.67-2.41-.73-3.69.37-.26.74-.52,1.11-.79Zm13.55-2.37c-3.47,0-5.83,1.98-5.48,5.05.34,3.01,2.12,4.66,5.28,4.51,3.36-.16,5.11-1.78,5.1-5.09-.01-2.74-1.91-4.48-4.9-4.48Z"/><path class="cls-1" d="m55.6,43.74c-.37.26-.74.53-1.11.79-.17-1.03.43-.96,1.11-.79Z"/></g></svg>