<style>/***************************************************
 * Generated by SVG Artista on 6/12/2023, 3:02:34 AM
 * MIT license (https://opensource.org/licenses/MIT)
 * W. https://svgartista.net
 **************************************************/

@-webkit-keyframes animate-svg-fill-1 {
  0% {
    fill: transparent;
  }

  100% {
    fill: rgb(6, 46, 133);
  }
}

@keyframes animate-svg-fill-1 {
  0% {
    fill: transparent;
  }

  100% {
    fill: rgb(6, 46, 133);
  }
}

.svg-elem-1 {
  -webkit-animation: animate-svg-fill-1 0.7s cubic-bezier(0.6, -0.28, 0.735, 0.045) 0.8s both;
          animation: animate-svg-fill-1 0.7s cubic-bezier(0.6, -0.28, 0.735, 0.045) 0.8s both;
}

@-webkit-keyframes animate-svg-fill-2 {
  0% {
    fill: transparent;
  }

  100% {
    fill: rgb(4, 169, 229);
  }
}

@keyframes animate-svg-fill-2 {
  0% {
    fill: transparent;
  }

  100% {
    fill: rgb(4, 169, 229);
  }
}

.svg-elem-2 {
  -webkit-animation: animate-svg-fill-2 0.7s cubic-bezier(0.6, -0.28, 0.735, 0.045) 0.9s both;
          animation: animate-svg-fill-2 0.7s cubic-bezier(0.6, -0.28, 0.735, 0.045) 0.9s both;
}

@-webkit-keyframes animate-svg-fill-3 {
  0% {
    fill: transparent;
  }

  100% {
    fill: rgb(4, 169, 229);
  }
}

@keyframes animate-svg-fill-3 {
  0% {
    fill: transparent;
  }

  100% {
    fill: rgb(4, 169, 229);
  }
}

.svg-elem-3 {
  -webkit-animation: animate-svg-fill-3 0.7s cubic-bezier(0.6, -0.28, 0.735, 0.045) 1s both;
          animation: animate-svg-fill-3 0.7s cubic-bezier(0.6, -0.28, 0.735, 0.045) 1s both;
}

@-webkit-keyframes animate-svg-fill-4 {
  0% {
    fill: transparent;
  }

  100% {
    fill: rgb(4, 169, 229);
  }
}

@keyframes animate-svg-fill-4 {
  0% {
    fill: transparent;
  }

  100% {
    fill: rgb(4, 169, 229);
  }
}

.svg-elem-4 {
  -webkit-animation: animate-svg-fill-4 0.7s cubic-bezier(0.6, -0.28, 0.735, 0.045) 1.1s both;
          animation: animate-svg-fill-4 0.7s cubic-bezier(0.6, -0.28, 0.735, 0.045) 1.1s both;
}

@-webkit-keyframes animate-svg-fill-5 {
  0% {
    fill: transparent;
  }

  100% {
    fill: rgb(4, 169, 229);
  }
}

@keyframes animate-svg-fill-5 {
  0% {
    fill: transparent;
  }

  100% {
    fill: rgb(4, 169, 229);
  }
}

.svg-elem-5 {
  -webkit-animation: animate-svg-fill-5 0.7s cubic-bezier(0.6, -0.28, 0.735, 0.045) 1.2000000000000002s both;
          animation: animate-svg-fill-5 0.7s cubic-bezier(0.6, -0.28, 0.735, 0.045) 1.2000000000000002s both;
}

@-webkit-keyframes animate-svg-fill-6 {
  0% {
    fill: transparent;
  }

  100% {
    fill: rgb(6, 46, 133);
  }
}

@keyframes animate-svg-fill-6 {
  0% {
    fill: transparent;
  }

  100% {
    fill: rgb(6, 46, 133);
  }
}

.svg-elem-6 {
  -webkit-animation: animate-svg-fill-6 0.7s cubic-bezier(0.6, -0.28, 0.735, 0.045) 1.3s both;
          animation: animate-svg-fill-6 0.7s cubic-bezier(0.6, -0.28, 0.735, 0.045) 1.3s both;
}

@-webkit-keyframes animate-svg-fill-7 {
  0% {
    fill: transparent;
  }

  100% {
    fill: rgb(6, 46, 133);
  }
}

@keyframes animate-svg-fill-7 {
  0% {
    fill: transparent;
  }

  100% {
    fill: rgb(6, 46, 133);
  }
}

.svg-elem-7 {
  -webkit-animation: animate-svg-fill-7 0.7s cubic-bezier(0.6, -0.28, 0.735, 0.045) 1.4000000000000001s both;
          animation: animate-svg-fill-7 0.7s cubic-bezier(0.6, -0.28, 0.735, 0.045) 1.4000000000000001s both;
}

@-webkit-keyframes animate-svg-fill-8 {
  0% {
    fill: transparent;
  }

  100% {
    fill: rgb(6, 46, 133);
  }
}

@keyframes animate-svg-fill-8 {
  0% {
    fill: transparent;
  }

  100% {
    fill: rgb(6, 46, 133);
  }
}

.svg-elem-8 {
  -webkit-animation: animate-svg-fill-8 0.7s cubic-bezier(0.6, -0.28, 0.735, 0.045) 1.5s both;
          animation: animate-svg-fill-8 0.7s cubic-bezier(0.6, -0.28, 0.735, 0.045) 1.5s both;
}

@-webkit-keyframes animate-svg-fill-9 {
  0% {
    fill: transparent;
  }

  100% {
    fill: rgb(6, 46, 133);
  }
}

@keyframes animate-svg-fill-9 {
  0% {
    fill: transparent;
  }

  100% {
    fill: rgb(6, 46, 133);
  }
}

.svg-elem-9 {
  -webkit-animation: animate-svg-fill-9 0.7s cubic-bezier(0.6, -0.28, 0.735, 0.045) 1.6s both;
          animation: animate-svg-fill-9 0.7s cubic-bezier(0.6, -0.28, 0.735, 0.045) 1.6s both;
}

@-webkit-keyframes animate-svg-fill-10 {
  0% {
    fill: transparent;
  }

  100% {
    fill: rgb(4, 169, 229);
  }
}

@keyframes animate-svg-fill-10 {
  0% {
    fill: transparent;
  }

  100% {
    fill: rgb(4, 169, 229);
  }
}

.svg-elem-10 {
  -webkit-animation: animate-svg-fill-10 0.7s cubic-bezier(0.6, -0.28, 0.735, 0.045) 1.7000000000000002s both;
          animation: animate-svg-fill-10 0.7s cubic-bezier(0.6, -0.28, 0.735, 0.045) 1.7000000000000002s both;
}

@-webkit-keyframes animate-svg-fill-11 {
  0% {
    fill: transparent;
  }

  100% {
    fill: rgb(6, 46, 133);
  }
}

@keyframes animate-svg-fill-11 {
  0% {
    fill: transparent;
  }

  100% {
    fill: rgb(6, 46, 133);
  }
}

.svg-elem-11 {
  -webkit-animation: animate-svg-fill-11 0.7s cubic-bezier(0.6, -0.28, 0.735, 0.045) 1.8s both;
          animation: animate-svg-fill-11 0.7s cubic-bezier(0.6, -0.28, 0.735, 0.045) 1.8s both;
}

@-webkit-keyframes animate-svg-fill-12 {
  0% {
    fill: transparent;
  }

  100% {
    fill: rgb(4, 169, 229);
  }
}

@keyframes animate-svg-fill-12 {
  0% {
    fill: transparent;
  }

  100% {
    fill: rgb(4, 169, 229);
  }
}

.svg-elem-12 {
  -webkit-animation: animate-svg-fill-12 0.7s cubic-bezier(0.6, -0.28, 0.735, 0.045) 1.9000000000000001s both;
          animation: animate-svg-fill-12 0.7s cubic-bezier(0.6, -0.28, 0.735, 0.045) 1.9000000000000001s both;
}
</style>
<?xml version="1.0" encoding="UTF-8"?><svg id="Layer_2" xmlns="http://www.w3.org/2000/svg" viewBox="0 0 111.12 119.58"><defs><style>.cls-1{fill:#062e85;}.cls-2{fill:#04a9e5;}</style></defs><g id="Layer_1-2"><path class="cls-2" d="m61.12,119.53c-14.02.26-25.3-3.52-35.61-10.62-10.12-6.97-17.21-16.27-21.7-27.59C.47,72.87-.42,64.11.17,55c.44-6.86,2.14-13.4,4.94-19.34,3.74-7.95,8.12-15.75,15.65-21.19,3.94-2.85,7.5-6.25,12.07-8.1,2.64-1.07,5.37-2.02,7.97-3.11C47.36.5,54.19.09,61.09,0c6.25-.08,12.3,1.28,18.2,3.32,11.87,4.1,21.68,10.97,28.94,21.3.94,1.33,1.73,2.77,2.54,4.19,1.01,1.78-.25,6.19-2.01,7.32-1.02.65-1.28-.15-1.64-.8-2.18-3.97-4.8-7.57-7.9-10.91-4.78-5.15-10.37-9.05-16.57-12.28-8.23-4.29-17.03-5.94-26.12-5.22-11.65.92-22.24,4.77-31.26,12.63-6.62,5.77-11.18,12.77-14.73,20.68-2.74,6.11-3.82,12.43-3.67,19.02.17,7.46,1.72,14.65,4.28,21.66,2.78,7.61,8.42,13.07,13.8,18.76,3.91,4.15,9.18,6.05,14.03,8.66,4.77,2.56,9.98,3.11,15.21,4,5.06.86,9.97.27,14.85-.31,5.89-.69,11.28-3.32,16.49-6.11,3.7-1.98,7.22-4.24,10.28-7.2,2.85-2.76,5.44-5.74,7.56-9.06,1.22-1.91,2.18-2.32,3.83-.77.12.11.28.18.42.26q3.91,2.25,1.02,5.82c-5.1,6.24-10.86,11.8-17.68,16.12-4.73,2.99-9.92,5.01-15.34,6.53-5.24,1.48-10.51,2.17-14.48,1.91Z"/><path class="cls-1" d="m51.76,57.98c3.58,0,7.16.04,10.73-.01,2.14-.03,3.16.8,3.12,3.06-.09,4.73-.06,9.47-.01,14.2.02,1.92-.89,2.71-2.73,2.69-2.08-.02-4.16-.02-6.24,0-.78.01-1.83-.26-1.83,1.05,0,1.03.8,1.14,1.59,1.09,1.31-.08,2.01.37,2,1.83-.01,1.76-1.21,1.46-2.25,1.47-3.16.02-6.32-.03-9.48.02-1.32.02-1.95-.34-1.92-1.82.03-1.44.55-1.88,1.92-1.77.61.05,1.65.47,1.69-.79.05-1.35-1-1.06-1.77-1.07-1.83-.03-3.68-.17-5.49.03-2.37.25-3.16-.95-3.18-2.99-.04-4.82-.03-9.63,0-14.45,0-1.68.76-2.56,2.61-2.52,3.74.08,7.49.02,11.23.02v-.04Zm-.37,16.31c2.83,0,5.66-.06,8.49.02,1.43.04,2.14-.28,2.08-1.91-.11-3.07-.09-6.15,0-9.22.04-1.54-.58-2-2.07-1.99-5.58.06-11.16.05-16.73,0-1.36-.01-1.97.43-1.95,1.85.06,3.16.08,6.32-.01,9.47-.04,1.5.63,1.82,1.95,1.78,2.75-.07,5.49-.02,8.24-.02Z"/><path class="cls-1" d="m80.27,43.27c.47.3.94.61,1.4.9,2.9,1.82,3.11,4.68,2.95,7.68-.49.77-.99,1.54-1.48,2.31,0,0,0,0,0,0-1.53,1.16-3.27,1.29-5.12,1.27-5.57-.07-11.15-.02-16.72-.03-2.07,0-5.38-2.35-5.96-4.18-.81-2.59.09-6.01,2.04-7.48,1.85-1.41,3.74-2.67,5.06-4.74,2.1-3.28,8.02-3.57,10.65-.64.59.65,1.19,1.06,2.13,1.01,2.79-.16,4.19,1.51,5,3.9,0,0-.02.08-.02.08l.06-.07Zm-9.93,8.52c2.83,0,5.65,0,8.48,0,.08,0,.17,0,.25,0,1.79.17,2.5-.74,2.17-2.38-.55-2.79-4.49-2.95-4.8-6.08-.07-.75-1.3-.58-2.01-.52-1.33.1-2.31-.23-3.2-1.34-1.16-1.44-3.03-1.93-4.65-1.45-1.71.5-2.97,1.91-2.86,4,.07,1.28-.5,1.81-1.79,1.72-2.22-.16-3.42,1.06-3.62,3.12-.15,1.53,1.93,2.94,4.05,2.94,2.66,0,5.32,0,7.98,0Z"/><path class="cls-1" d="m43.89,48.63c1.14-1.01,1.88-2.47,3.57-2.89,1.09-.27.64-1.56,1.17-2.44,1.32.62,2.04,1.9,3.13,2.71.93.69.47,1.6-.01,1.82-1.33.61-1.2,3.59-3.9,2.26-.5-.25-1.84,1.62-1.58,3.17.2,1.23-.13,1.97-1.66,2.09-1.73.13-1.7-.82-1.67-1.97.22-.23.22-.46,0-.69.04-.91-.09-1.85.32-2.71.7-.22.83-.71.63-1.36Z"/><path class="cls-1" d="m73.36,63.57c1.08-.96,1.42-2.19,1.26-3.58-.15-1.27.12-2.03,1.68-1.99,1.5.04,2.07.61,1.99,2.1-.17,2.86-.82,5.32-3.66,6.85-.94.5-2.17,1.04-2.49,2.46-.14.62-.78.23-1.17-.07-.5-1.08-1.35-1.81-2.41-2.32.2-1.89,1.9-2.63,2.96-3.85.88,1.51,1.01,1.54,1.85.41Z"/><path class="cls-1" d="m84.62,51.86c.16-3-.05-5.86-2.95-7.68,3.51,1.89,4.38,4.15,2.95,7.68Z"/><path class="cls-1" d="m68.56,67.01c1.06.51,1.91,1.24,2.41,2.32-1.08-.49-1.83-1.32-2.41-2.32Z"/><path class="cls-1" d="m73.36,63.57c-.84,1.13-.97,1.1-1.85-.41.73-.34,1.2.4,1.85.41Z"/><path class="cls-1" d="m43.89,48.63c.19.64.07,1.14-.63,1.36-.31-.7.13-1.04.63-1.36Z"/><path class="cls-1" d="m42.94,52.7c.23.23.22.46,0,.69-.37-.23-.37-.46,0-.69Z"/><path class="cls-1" d="m83.14,54.16s0,0,0,0c0,0,0,0,0,0Z"/><polygon class="cls-1" points="80.27 43.27 80.21 43.34 80.23 43.27 80.27 43.27"/></g></svg>