<?xml version="1.0" encoding="UTF-8"?><svg id="Layer_2" xmlns="http://www.w3.org/2000/svg" viewBox="0 0 111.77 119.71"><defs><style>.cls-1{fill:#062e85;}.cls-2{fill:#04a9e5;}</style></defs><g id="Layer_1-2"><path class="cls-1" d="m105.46,21.08c2.28,2.16,3.5,5.08,5.43,7.49,1.78,2.22.52,3.97-.58,5.68-2.11,3.3-2.22,3.27-3.98-.41-3.25-6.79-8.58-11.73-14.36-16.27-4.74-3.72-10.23-6.12-15.77-8.32-2.45-.97-5.19-1.31-7.83-1.68-6.85-.95-13.79-.85-20.48.6-6.88,1.49-13.32,4.46-19.05,8.72-5.83,4.35-10.65,9.62-14.44,15.84-2.19,3.6-3.55,7.52-5.09,11.42-2.46,6.22-2.49,12.62-2.3,19.06.2,6.69,2.14,12.94,4.97,19.04,4.33,9.31,10.87,16.63,19.39,22.13,4.6,2.97,9.51,5.31,15.04,6.58,5.02,1.15,9.95,1.81,15.05,1.7,7.65-.16,14.82-1.99,21.73-5.35,6.55-3.19,12.06-7.6,16.93-12.88,1.2-1.3,2.33-2.73,3.19-4.26.92-1.65,1.99-2.28,3.69-1.36,4.03,2.17,4.21,2.16,1.83,5.6-5.18,7.45-11.88,13.28-19.69,17.72-5.12,2.91-10.72,4.81-16.53,6.23-4.39,1.08-8.79,1.32-13.16,1.36-6.17.05-12.21-1.21-18.14-3.19-4.62-1.54-9.09-3.31-13.15-5.93-5.75-3.71-11-8.02-15.16-13.53-2.93-3.88-5.55-7.94-7.53-12.41-1.83-4.11-3.07-8.36-4.08-12.76-.83-3.65-1.02-7.34-1.29-10.98-.4-5.44.84-10.79,2.11-16.1,1.03-4.32,2.58-8.32,4.58-12.31,3.02-6.04,6.91-11.33,11.83-15.86,5.42-4.99,11.38-9.02,18.35-11.87C45.63,1.22,54.47-.31,63.74.05c4.58.18,8.98,1.38,13.38,2.56,8.24,2.2,15.22,6.7,21.93,11.75,2.14,1.61,3.82,3.64,5.78,5.39-.38.72.48.85.63,1.33Z"/><path class="cls-2" d="m38.55,55.47c-2.21.02-2.1,1.25-2.13,2.4-.02.9.18,1.93-1.24,1.97-1.52.04-1.19-1.09-1.17-1.93.08-3.24,1.39-6.26,1.8-9.46.15-1.18,5.16-2.77,7-2.2,1.91.6,4.34.56,4.83,3.44.16.92,1.12.78,1.61-.12,1.7-3.14,6.04-4.34,9.48-2.68,1.62.78,2.91,1.75,2.6,4.09,3.17-4.83,8.38-6.16,12.1-3.36.75.57,1.41,1.19,1.35,2.23-.12,2.01.78,3.86,1.24,5.72.39,1.54-.42,1.92-1.05,2.62-.74.81-1.36.49-1.57-.49-.33-1.49-.57-2.99-1.41-4.48,0,1.9,0,3.8,0,5.7,0,.92.05,1.81-.78,2.49-.71.59-1.37,1.53-1.94-.06-.2-.54-.46-.9-1.06-.78-.78.16-.67.83-.73,1.39-.13,1.22.33,2.53-.38,3.65-.28.45-.59,1.15-1.28,1.02-.8-.15-.56-.91-.57-1.44-.03-3.49-.02-6.98-.04-10.47,0-.31-.11-.62-.16-.91-.93-.14-1.06.44-1.14,1.03-.09.66.08,1.44-.23,1.95-.63,1.05-.34,3.09-2.12,2.97-1.91-.13-1.61-1.9-1.74-3.3-.13-1.38-.5-2.73-.98-4.11-.68,1.8-.39,3.7-.42,5.56-.03,1.51.16,3.02-2.17,1.97-.42-.19-1.03-.18-1.48-.03-2.7.88-3.15-.42-2.93-2.74.17-1.72.03-3.48-.14-5.24-.12,2.35-2.35,4.02-1.97,6.57.11.71-.85,1.15-1.71,1.01-.88-.15-1.35-.77-1.25-1.58.26-2.3-1.44-4.15-1.39-6.39-1,3.14.44,6,.94,8.97.3,1.78,1.73,3.88-1.1,5.05-.24.1-.41.73-.36,1.09.24,1.76-.86,2.49-2.29,3.23-.69-1.56.12-3.21-.79-5.01-1.34,3.18,1.13,7.19-3.3,9.35,0-2.38.01-4.54,0-6.71,0-1.04.27-2.19-1.32-2.49-1.01-.19-1-1.28-.71-1.84,1.2-2.34.47-5.1,2.07-7.66Z"/><path class="cls-2" d="m90.03,59.72c-.5-.03-.7.02-.8-.06q-3.65-2.71-6.93.54c-5.26,5.25-10.53,10.49-15.73,15.79-1.07,1.09-1.68,1.31-2.85.05-2.28-2.46-4.83-4.67-7.19-7.06-.91-.92-1.5-.89-2.47-.05-4.64,4.01-8.56,8.73-13.05,12.9-.73.68-1.51,1.31-2.17,2.04-.82.92-1.37,2.13-2.84.62-1.22-1.25-1.85-2.25-.35-3.72,3.72-3.63,7.39-7.32,11.07-10.99,2.16-2.16,4.3-4.35,6.47-6.49,1.13-1.11,2.15-1.18,3.36.12,2.21,2.36,4.65,4.52,6.88,6.86,1.21,1.27,1.97,1.46,3.34.03,4.6-4.81,9.3-9.52,14.13-14.11,1.75-1.66,1.86-2.89.07-4.4-.45-.39-1.36-.61-.94-1.49.37-.77,1.17-.47,1.79-.48,2-.04,4,.05,5.99-.04,1.55-.07,2.31.37,2.24,2.08-.1,2.61-.03,5.23-.03,7.86Z"/><path class="cls-2" d="m68.78,38.96c2.04-.02,2.86,1.41,3.14,3.05.25,1.47-1.76,3.07-3.52,3.06-2,0-3.12-1.21-3.08-3.3.04-1.99,1.11-2.86,3.45-2.81Z"/><path class="cls-2" d="m55.03,45.07c-2.42,0-3.24-.77-3.2-3.04.03-1.8,1.5-3.26,3.34-3.16,1.92.11,3.04,1.28,3.22,3.13.18,1.82-1.3,3.07-3.36,3.07Z"/><path class="cls-2" d="m41.93,45.07c-2.14-.02-3.38-1.19-3.25-3.17.13-1.95,1.25-3.06,3.21-3.02,2.19.04,2.99,1.43,3.01,3.47.01,2.04-1.07,2.81-2.97,2.73Z"/><path class="cls-1" d="m105.46,21.08c-.15-.47-1.01-.61-.63-1.33.66.24,1.01.61.63,1.33Z"/></g></svg>