<?xml version="1.0" encoding="UTF-8"?><svg id="Layer_2" xmlns="http://www.w3.org/2000/svg" viewBox="0 0 112.27 119.82"><defs><style>.cls-1{fill:#062e85;}.cls-2{fill:#04a9e5;}</style></defs><g id="Layer_1-2"><path class="cls-1" d="m54.18,119.15c-12.37-.7-22.97-5.8-32.4-13.41-7.76-6.26-13.39-14.23-17.16-23.47-2.46-6.05-4.01-12.3-3.97-18.87,0,0,.04-.2.04-.2l-.15-.1c-1-2.84-.38-5.73-.14-8.58.65-7.56,2.79-14.76,6.21-21.48,3.14-6.18,7.19-11.73,12.31-16.57,4.1-3.88,8.5-7.28,13.52-9.7,5.64-2.71,11.42-5.04,17.79-5.9C54.12.35,57.95.12,61.84.01c5.39-.15,10.44,1.4,15.58,2.73,6.97,1.81,13.26,4.92,18.82,9.32,5.51,4.36,10.84,9.01,14.05,15.52.25.5.72.9,1.14,1.3,1,.95,1.13,1.83.23,3.01-.78,1.02-1.24,2.29-1.94,3.38-.68,1.05-1.6,1.93-2.35.09-1.68-4.15-4.72-7.35-7.36-10.82-.1-.1-.21-.2-.32-.3-1.24-1.22-2.49-2.44-3.73-3.66-.06-.37-.25-.24-.44-.11-.13-.28-.26-.55-.39-.83,0,0,.01,0,.01,0-2.96-1.53-5.16-4.17-8.19-5.6-6.89-3.27-13.62-6.55-21.66-6.7-6.46-.12-12.94-.4-19.11,1.22-6.31,1.65-12.12,4.83-17.48,8.7-7.03,5.07-12.36,11.44-16,19.34-1.09,2.37-2.41,4.6-2.86,7.21-.62.2-.88.58-.61,1.23-.11.55-.23,1.11-.34,1.66-.78.08-.46.5-.26.88-1.66,5.96-2,12.15-1.17,18.14,1.5,10.88,5.39,20.81,13.01,29.22,5.6,6.18,12.19,10.81,19.64,14.07,5.16,2.26,10.8,3.54,16.54,3.65,4.86.09,9.79.39,14.52-.93,6.62-1.84,13.24-3.81,18.84-8.04,4.5-3.4,8.96-6.86,12.23-11.57.41-.59.97-1.07,1.26-1.78.88-2.12,2.08-2.67,4.26-1.32,3.25,2.01,3.5,1.99,1.38,5.13-4.09,6.05-9.36,11-15.34,15.16-5.51,3.83-11.53,6.74-18.08,8.2-6.55,1.47-13.16,2.95-19.97,2.08-.29-1.01-.99-.5-1.58-.41Z"/><path class="cls-2" d="m61.93,41.45c4.91,0,9.82.05,14.73-.02,2.1-.03,3.08.8,3.04,2.93-.05,2.99-.05,5.98,0,8.97.03,1.77-.73,2.62-2.53,2.58-1.66-.04-3.33-.06-4.99.01-1.18.06-2.69-.6-3.02,1.55-.13.87-.88.08-1.26-.25-2.44-2.09-3.22-2.12-5.57-.01-.64.57-1,.52-1.65-.02-2.54-2.11-3.07-2.08-5.62.17-.77.68-1.53,1.45-1.74-.26-.15-1.23-.88-1.2-1.74-1.2-1.83,0-3.66-.04-5.49,0-1.28.03-1.78-.51-1.77-1.77.04-3.41.03-6.81,0-10.22-.02-1.82.89-2.49,2.64-2.48,4.99.04,9.99.01,14.98.01Zm11.57,7.67c0-.16,0-.32,0-.48h-23.91c0,.16,0,.32,0,.48h23.91Zm-2.53-2.44c0-.15,0-.3,0-.45h-21.44c0,.15,0,.3,0,.45h21.43Zm-4.53,4.49c0-.15,0-.3,0-.45h-16.87c0,.15,0,.3,0,.45h16.87Z"/><path class="cls-2" d="m61.61,80.26c-1.33,0-2.68.15-3.98-.04-1.13-.17-2.82.99-3.3-1.08-.63-2.69.12-4.54,2.37-5.2,3.63-1.06,7.31-1.14,10.83.52,1.67.79,2.33,2.13,2.13,4.04-.13,1.27-.61,1.78-1.84,1.76-2.07-.02-4.15,0-6.22,0Z"/><path class="cls-2" d="m48.2,77.45c-.41,0-.84.06-1.24-.01-1.05-.19-2.71.63-2.97-.9-.3-1.74-.85-3.88,1.35-5.06,3.57-1.92,7.26-1.73,11-.57.39.12.82.3.72.8-.09.45-.58.5-.93.71-1.71,1.02-3.75,1.76-3.9,4.24-.05.8-.73.77-1.31.78-.91.02-1.82,0-2.73,0Z"/><path class="cls-2" d="m65.63,71.56c4.53-1.76,8.58-2.23,12.58.43,1.96,1.3,1.08,3.16.92,4.71-.13,1.28-1.64.64-2.54.73-.99.1-2-.06-2.99.04-1.75.19-2.87-.38-3.28-2.19-.5-2.2-2.77-2.33-4.69-3.72Z"/><path class="cls-2" d="m65.33,68c-.01,2.33-1.44,3.78-3.65,3.72-2.06-.06-3.96-2-3.89-3.99.05-1.65,2.22-3.83,3.81-3.82,1.98,0,3.74,1.95,3.73,4.1Z"/><path class="cls-2" d="m71.53,68.46c-2.25-.03-3.72-1.33-3.76-3.33-.05-2.22,1.71-3.78,4.21-3.71,2,.05,3.67,1.65,3.67,3.53,0,2.16-1.63,3.56-4.12,3.52Z"/><path class="cls-2" d="m55.26,64.76c0,2.33-1.37,3.74-3.61,3.7-2.03-.03-3.6-1.6-3.57-3.59.02-2,1.4-3.43,3.34-3.46,2.52-.05,3.84,1.1,3.85,3.34Z"/><path class="cls-1" d="m54.18,119.15c.59-.09,1.29-.6,1.58.41-.57,0-1.17.16-1.58-.41Z"/><path class="cls-1" d="m9.24,45.01c-.27-.65,0-1.03.61-1.23.18.6-.11.96-.61,1.23Z"/><path class="cls-1" d="m8.65,47.55c-.2-.38-.52-.79.26-.88.34.42.39.75-.26.88Z"/><path class="cls-2" d="m95.53,20.47c.19-.13.38-.26.44.11-.15-.04-.3-.07-.44-.11Z"/><path class="cls-2" d="m99.7,24.23c.11.1.21.2.32.3-.33.13-.46.06-.32-.3Z"/><path class="cls-1" d="m.55,63.11l.15.1s-.04.2-.04.2c-.16.23-.4.34-.52.03-.11-.28.13-.39.41-.33Z"/><path class="cls-2" d="m95.15,19.63s-.01,0-.01,0,.01,0,.01,0Z"/></g></svg>