<?xml version="1.0" encoding="UTF-8"?><svg id="Layer_2" xmlns="http://www.w3.org/2000/svg" viewBox="0 0 112.02 119.86"><defs><style>.cls-1{fill:#062e85;}.cls-2{fill:#04a9e5;}</style></defs><g id="Layer_1-2"><path class="cls-1" d="m54.46,119.2c-9.65-.59-18.23-4.16-26.38-9.13-3.67-2.24-6.67-5.16-9.68-8.12-.1-.1-.2-.19-.31-.29-.22-.22-.45-.45-.67-.67-.1-.1-.2-.2-.31-.3-9.08-9.63-14.34-21-15.66-34.17.03-.4.28-.87-.3-1.12-.14-.95-.28-1.91-.42-2.85.1-.56.17-1.12-.33-1.56.76-3.22.73-6.54,1.24-9.81.87-5.67,2.45-11.01,4.8-16.24,2.47-5.51,5.91-10.33,9.72-14.89,3.49-4.16,7.73-7.56,12.32-10.5,4.99-3.2,10.4-5.43,16.07-7.09C51.82.33,59.26-.51,66.72.31c5.43.6,10.79,1.95,15.97,4,6.5,2.57,12.39,6.06,17.68,10.52,4.82,4.06,8.78,8.88,11.49,14.64.67,1.42-.91,6.43-2.26,7.27-1.04.65-1.22-.24-1.53-.91-2.79-6.17-7.27-11.06-12.12-15.63-3.63-3.42-7.88-6.02-12.43-8.01-2.7-1.18-5.43-2.35-8.23-3.35-1.75-.62-3.53-.82-5.24-1.08-7.07-1.04-14.31-1.16-21.21.5-7.54,1.81-14.44,5.29-20.85,10-6.36,4.66-10.2,11.1-14.4,17.31-1.82,2.68-2.48,6.14-3.64,9.27-2.55,6.91-1.58,14.14-1.86,21.25-.04.92.27,1.8.7,2.62-.31.21-.29.36.09.42.07.77.13,1.53.2,2.29-.19.71-.19,1.35.65,1.66.11.76.22,1.52.33,2.28.56,1-.61,2.7,1.28,3.17,1.06,3.69,2.95,7,4.98,10.19,4.37,6.87,10.13,12.44,17.1,16.62,4.41,2.64,9.2,4.53,14.18,6.06,6.26,1.93,12.61,1.5,18.9,1.23,4.26-.19,8.49-1.53,12.61-2.97,6.53-2.28,12.23-5.88,17.32-10.46,2.71-2.44,5.31-5.03,7.21-8.2,1.71-2.85,6-2.8,7.7.07.32.55.22,1.02-.18,1.58-6.69,9.56-15,17.14-25.89,21.79-6.32,2.7-12.8,4.41-19.66,5.05-3.66.34-7.22.76-10.81-.25-.11,0-.23-.02-.35-.03Z"/><path class="cls-2" d="m64.21,55.4c-.49,1.99-1.03,3.96-1.43,5.97-.16.81.05,1.73-1.12,1.88-1.29.17-1.46-.72-1.62-1.69-.2-1.21-.48-2.41-.76-3.77-.89.61-.58,1.48-.58,2.18-.03,5.32.01,10.64-.04,15.96,0,1.01.62,2.58-1.38,2.53-1.81-.05-1.2-1.5-1.21-2.43-.06-3.86-.03-7.71-.03-12.15-1.16,1.02-.98,1.79-.98,2.46-.02,3.41-.04,6.81,0,10.22.02,1.23-.27,2.32-1.64,2.25-1.35-.07-.89-1.39-.9-2.19-.05-5.65,0-11.3-.04-16.95,0-.85.35-1.81-.57-2.7-.46,1.75-1,3.34-1.26,4.98-.17,1.04-.62,1.5-1.57,1.52-1.06.03-1.36-.65-1.49-1.59-.21-1.52-.56-3.01-1.07-4.5-.82,2.46.06,4.86.57,7.19.35,1.59,1.05,2.95-.53,4.24-.66.54-.43,1.39-.44,2.12-.02,1.99-.02,3.99,0,5.98,0,.99-.04,1.83-1.42,1.78-1.3-.05-1.44-.83-1.43-1.84.02-2.55,0-5.1,0-7.64-.24,0-.47,0-.71,0,0,2.45-.02,4.9,0,7.35.01,1.16.01,2.22-1.63,2.14-1.65-.08-1.19-1.31-1.21-2.2-.05-1.83.01-3.66-.03-5.48-.03-1.26.43-2.78-1.53-3.16-.19-.04-.48-.65-.4-.77,1.22-1.75.32-3.98,1.26-5.69.85-1.55.37-2.96.08-4.5-.42,1.6-.98,3.17-1.21,4.8-.19,1.31-.72,1.84-1.94,1.48-1.27-.37-.66-1.15-.41-1.96.57-1.79,1.05-3.6,1.44-5.44.71-3.34,2.13-4.7,5.22-4.81,4.06-.15,5.65.92,6.62,4.42.04.13.2.22.57.62-.09-3.79,2.37-4.96,5.25-5.42,3.01-.48,5.21,1.15,6.9,3.26.54.18.51-.17.66-.32,2.15-2.1,3.79-4.18,3.11-7.67-.24-1.26,1.94-2.5,3.68-1.48,1.35.79,2.89,1.69,1.38,3.81-.96,1.35-1.06,3.14,1.13,3.33,1.86.16,1.34,3.79,2.84,2.37.99-.95,1.97-1.89,3.17-2.6,3.29-1.95,7.16-.18,8.45,3.4.7,1.95.54,4.05,1.52,5.95.41.79.71,2.61-.97,2.8-1.24.14-1.63-1.12-1.74-2.28-.06-.68.27-1.52-.74-2.03-.77.71-.49,1.66-.5,2.49-.03,4.9,0,9.81-.03,14.71,0,.92.4,2.25-1.13,2.31-1.56.06-1.22-1.27-1.23-2.2-.03-3.41,0-6.81-.03-10.22,0-.62.19-1.54-.74-1.58-.97-.03-.78.91-.78,1.52-.03,3.32-.03,6.65,0,9.97,0,1.2.11,2.4-1.55,2.53-.85.07-.9-.04-.91-2.3-.01-4.74.01-9.47-.02-14.21,0-.84.27-1.79-.48-2.58-1.01.61-.58,1.53-.71,2.27-.15.81-.5,1.46-1.3,1.65-.87.21-1.23-.39-1.7-1.07-.85-1.24-.78-2.66-1.13-4.66-.74,1.96-.71,3.42-.28,4.68.74,2.2.89,4.09-.07,6.4-.74,1.78-.21,4.09-.24,6.17,0,.66-.01,1.33,0,1.99,0,.82-.14,1.5-1.18,1.52-1.13.02-1.4-.66-1.4-1.61,0-2.24.01-4.49-.02-6.73,0-.62.2-1.58-.72-1.57-.88,0-.73.95-.74,1.59-.02,2.24,0,4.49-.02,6.73,0,.84-.02,1.86-1.09,1.94-1.32.09-.97-1.1-1-1.83-.06-1.99-.02-3.99-.02-5.98,0-1.23.15-2.39-1.28-3.2-1.09-.62-.64-1.85-.36-2.93.61-2.29,1.14-4.6,1.59-6.92.15-.77-.04-1.61-.08-2.41-.23-.04-.47-.09-.7-.13Z"/><path class="cls-2" d="m45.91,47.27c-.21,1.59-1.21,2.52-3.14,2.44-2-.09-3.14-1.14-3.11-3.09.04-1.94,1.47-2.94,3.21-3.22,1.48-.24,3.09,1.81,3.04,3.87Z"/><path class="cls-2" d="m83.25,47.19c-.07,1.56-.93,2.53-2.77,2.5-1.84-.03-3.27-.69-3.29-2.76-.02-1.83,1.12-3.01,2.89-2.98,1.78.02,3.16.92,3.16,3.24Z"/><path class="cls-2" d="m58.21,47.44c-.02,1.22-.78,2.26-2.65,2.26-1.81,0-3.24-.56-3.38-2.62-.12-1.72,1.36-3.1,3.08-3.06,1.84.05,2.91,1.09,2.94,3.42Z"/><path class="cls-1" d="m11.34,78.54c-1.9-.47-.73-2.17-1.28-3.17,1.43.66.69,2.18,1.28,3.17Z"/><path class="cls-1" d="m9.73,73.09c-.85-.31-.85-.95-.65-1.66.45.47.95.91.65,1.66Z"/><path class="cls-1" d="m.41,60.97c.5.44.43,1,.33,1.56-.42-.46-1.25-.83-.33-1.56Z"/><path class="cls-1" d="m1.17,65.38c.57.25.33.72.3,1.12-.16.22-.42.27-.49.03-.13-.38-.33-.85.2-1.15Z"/><path class="cls-2" d="m18.1,101.65c.1.1.21.2.31.29-.33.14-.44.05-.31-.29Z"/><path class="cls-1" d="m8.87,69.13c-.39-.07-.4-.21-.09-.42.07.1.14.19.2.3,0,.02-.07.08-.11.13Z"/><path class="cls-2" d="m54.46,119.2c.12,0,.24.02.35.03-.06.08-.13.16-.19.25-.05-.09-.11-.18-.16-.27Z"/><path class="cls-2" d="m17.12,100.67c.1.1.21.2.31.3-.34.14-.45.04-.31-.3Z"/></g></svg>