<?xml version="1.0" encoding="UTF-8"?>
<svg id="b" data-name="Layer 2" xmlns="http://www.w3.org/2000/svg" width="383.266" height="383.248" viewBox="0 0 383.266 383.248">
  <defs>
    <style>
      .d {
        fill: #133289;
      }
    </style>
  </defs>
  <g id="c" data-name="Layer 1">
    <g>
      <path class="d" d="m329.371,0c6.529,3.381,8.365,8.865,8.333,15.991-.199,43.164-.106,86.329-.091,129.493.002,5.634-2.115,9.981-7.396,12.378-1.169.531-2.563.778-3.856.79-7.984.071-15.968.008-23.952.045-15.335.072-28.777,5.387-40.67,14.864-2.696,2.148-5.239,4.487-8.272,7.098-6.181-6.232-12.591-12.464-18.7-18.98-2.165-2.309-4.352-3.067-7.428-3.052-24.326.114-48.654.108-72.98,0-2.597-.012-4.349.778-6.117,2.593-6.337,6.507-12.83,12.863-18.825,18.838-6.136-4.386-11.711-9.208-18.037-12.647-5.85-3.18-12.402-5.222-18.829-7.153-11.758-3.532-23.891-.852-35.84-1.515-6.457-.358-11.021-4.6-11.024-11.1-.016-44.662.094-89.324-.125-133.984-.033-6.72,2.19-11.162,8.347-13.657h275.462Zm-115.601,68.865c22.31,0,44.621.009,66.931-.024,1.305-.002,2.707-.102,3.897-.576,5.232-2.08,8.907-7.311,8.021-11.473-1.529-7.178-5.561-10.288-12.147-10.309-44.745-.138-89.491-.065-134.237-.066-5.944,0-11.418,5.36-10.806,12.099.521,5.733,4.958,10.334,11.036,10.338,22.435.012,44.87.005,67.305.012Zm-45.115,44.907c22.684,0,45.37-.096,68.052.102,3.457.03,9.052-4.02,10.043-6.992,1.409-4.224,1.104-8.193-2.195-11.774-3.528-3.83-7.977-3.788-12.531-3.788-43.25,0-86.5-.005-129.75.007-7.11.002-11.673,4.392-11.678,11.141-.005,6.892,4.451,11.298,11.501,11.302,22.186.012,44.372.005,66.558.001Zm-78.06-56.073c.004,6.43,4.598,11.162,10.833,11.157,6.051-.004,11.978-5.465,11.518-11.253-.523-6.575-4.515-10.905-12.002-11.109-6.109-.166-11.157,5.924-10.348,11.204Zm190.379,56.067c6.108.006,11.98-5.269,11.611-11.147-.405-6.449-4.272-10.924-11.89-11.219-6.193-.24-10.867,5.995-10.549,11.115.404,6.498,4.603,11.246,10.828,11.251Z"/>
      <path class="d" d="m383.266,353.31c-.498.494-1.075.93-1.481,1.49-2.723,3.757-5.974,6.094-11.012,6.064-25.19-.15-50.381-.088-75.572-.035-2.212.005-3.74-.227-4.035-2.908-1.775-16.128-7.859-30.62-17.139-43.796-5.682-8.068-12.167-15.432-20.325-21.162-.807-.567-1.466-1.344-2.346-2.165,13.069-11.235,27.959-17.771,45.235-19.791-14.913-3.106-26.203-11.341-32.936-24.647-6.86-13.555-6.819-27.772.362-41.321,10.408-19.637,31.964-27.795,51.677-22.028,24.453,7.154,33.717,27.065,32.882,44.404-1.209,25.096-18.784,39.81-38.41,43.607,2.038.48,4.052,1.132,6.117,1.412,19.04,2.588,34.697,11.634,47.269,25.775,9.907,11.144,16.438,24.175,18.274,39.252.132,1.083.944,2.084,1.439,3.123v12.725Z"/>
      <path class="d" d="m197.781,293.55c3.485.702,6.951,1.523,10.458,2.086,10.957,1.758,20.674,6.525,29.431,12.992,13.256,9.789,23.213,22.353,28.046,38.289,1.99,6.56,2.658,13.536,3.716,20.355.358,2.307.432,4.785-.003,7.063-1.05,5.494-5.391,8.909-10.854,8.91-44.89.006-89.78.004-134.67-.009-6.17-.002-10.776-4.669-10.858-10.818-.332-24.774,9.789-44.904,28.119-60.857,10.349-9.007,22.624-14.779,36.464-16.651,2.148-.291,4.275-.743,6.694-1.491-14.902-3.059-26.19-11.281-32.949-24.575-6.825-13.425-6.836-27.59.149-41.013,10.032-19.276,30.488-27.3,49.056-23.039,24.877,5.708,36.047,25.048,35.735,44.296-.354,21.797-14.67,39.473-38.533,44.461Z"/>
      <path class="d" d="m85.567,270.897c17.08,2.209,32.401,8.317,45.649,20.013-22.615,17.813-36.44,40.622-40.221,69.716-.734.044-1.789.162-2.843.162-25.687.009-51.373.012-77.06-.002-6.506-.003-10.985-4.537-11.083-10.992-.292-19.337,6.409-35.985,18.678-50.793,11.681-14.098,26.82-22.091,44.187-26.462,2.885-.726,5.95-.738,9.124-1.502-14.352-3.053-25.309-10.831-32.24-23.502-6.99-12.779-7.474-26.303-1.662-39.66,8.75-20.11,28.703-28.061,43.824-26.469,32.545,3.425,42.88,28.964,42.144,45.722-1.059,24.095-17.628,39.841-38.498,43.769Z"/>
    </g>
  </g>
</svg>