<?xml version="1.0" encoding="UTF-8"?>
<svg id="b" data-name="Layer 2" xmlns="http://www.w3.org/2000/svg" width="751.281" height="745.824" viewBox="0 0 751.281 745.824">
  <defs>
    <style>
      .d {
        fill: #06ACE9;
      }
    </style>
  </defs>
  <g id="c" data-name="Layer 1">
    <g>
      <path class="d" d="m0,193.98c6.523-14.983,20.495-15.487,33.521-16.021,10.23-.419,15.404-3.843,17.477-14.12,1.723-8.544,5.795-16.584,9.97-24.346,1.874-3.485,1.611-6.226-.984-9.298-4.726-5.598-9.268-11.371-13.576-17.296-7.849-10.796-7.824-20.099,1.205-29.867,10.608-11.475,21.715-22.532,33.166-33.167,8.616-8.002,18.472-8.266,28.195-1.612,5.838,3.994,11.391,8.445,16.794,13.018,3.473,2.939,6.37,3.318,10.452.915,10.138-5.968,21.063-10.334,32.314-13.708,4.879-1.463,7.26-3.792,7.476-9.138.245-6.067,1.432-12.108,2.398-18.131,2.184-13.609,9.286-20.391,23.106-20.849,14.403-.478,28.846-.476,43.25-.009,14.886.483,23.39,7.656,23.803,22.346.472,16.804,5.449,28.02,23.701,30.94,6.013.962,11.659,4.904,17.183,8,3.954,2.216,6.939,2.338,10.484-.827,4.912-4.386,10.145-8.457,15.511-12.282,10.078-7.184,20.36-6.72,29.348,1.836,11.149,10.612,22.063,21.495,32.642,32.673,8.418,8.895,8.728,19.518,1.498,29.394-4.039,5.517-8.298,10.891-12.73,16.098-2.77,3.255-3.001,6.213-1.049,9.981,5.175,9.987,9.864,20.21,12.728,31.147.867,3.309,2.8,4.743,6.196,5.089,6.795.693,13.556,1.73,20.328,2.639,13.722,1.842,21.11,9.417,21.523,23.319.435,14.65.448,29.335-.012,43.984-.432,13.759-7.314,20.998-20.865,23.098-6.75,1.046-13.526,2.019-20.327,2.607-3.92.339-6.202,1.731-7.368,5.666-3.34,11.277-7.938,22.073-13.674,32.339-1.876,3.357-1.214,5.753,1.102,8.534,4.69,5.629,9.241,11.392,13.557,17.313,8.174,11.211,7.834,21.184-1.577,31.085-10.099,10.624-20.459,21.026-31.125,31.08-10.567,9.961-20.511,10.019-32.242,1.201-6.813-5.121-12.491-13.35-20.519-14.799-7.859-1.419-14.845,6.398-22.803,8.715-.233.068-.445.252-.676.275-18.072,1.744-22.421,13.736-22.065,29.368.119,5.214-1.08,10.314-3.57,14.83-3.834,6.952-10.071,10.586-18.029,10.649-16.129.126-32.263.225-48.388-.03-10.357-.164-17.652-5.77-20.039-16.09-1.859-8.037-2.518-16.384-3.267-24.634-.567-6.247-2.789-10.374-9.421-11.978-9.065-2.193-17.462-6.306-25.579-10.829-3.966-2.21-7.01-2.111-10.537.916-5.743,4.929-11.752,9.569-17.849,14.06-11.527,8.492-21.204,7.924-31.524-2.065-10.36-10.027-20.582-20.206-30.586-30.588-9.698-10.065-10.276-19.684-2.062-30.958,4.457-6.118,9.228-12.023,14.113-17.808,3.028-3.586,3.86-6.843,1.389-11.216-4.694-8.306-8.486-17.075-11.104-26.272-1.17-4.111-3.673-6.063-7.758-6.495-5.824-.616-11.621-1.639-17.457-1.938-11.291-.579-20.446-4.445-25.67-15.147v-61.594Zm145.271,27.893c-.032,43.344,34.82,78.625,77.787,78.743,43.672.12,78.777-34.855,78.816-78.525.039-43.31-35.595-79.1-78.596-78.94-42.907.16-77.975,35.549-78.007,78.721Z"/>
      <path class="d" d="m680.829,549.542c-8.602.094-15.098-5.54-21.723-10.37-4.87-3.55-8.782-3.936-13.766-.449-6.003,4.199-12.591,7.531-19.543,9.944-4.786,1.661-6.989,4.55-6.879,9.795.106,5.102-.554,10.234-1.066,15.334-1.057,10.509-7.365,17.785-17.937,19.248-11.343,1.57-22.805,2.621-34.247,3.048-11.542.43-20.404-5.376-21.523-16.681-1.65-16.669-9.168-24.459-25.519-28.583-10.272-2.591-16.222-1.957-23.393,5.375-14.545,14.87-23.405,14.789-39.095,1.375-6.313-5.397-12.902-10.498-18.93-16.195-9.236-8.728-11.437-19.045-3.487-28.836,9.931-12.23,9.827-22.002,1.763-35.578-5.549-9.342-11.022-12.572-20.814-12.726-20.497-.321-26.115-5.848-28.103-26.299-.755-7.77-1.624-15.53-2.335-23.303-1.078-11.779,4.948-22.94,16.471-24.16,16.544-1.751,24.737-9.343,26.048-25.496.19-2.343,1.427-4.676,2.499-6.856,2.672-5.435,1.337-9.724-3.01-13.696-18.907-17.276-18.266-28.635-1.363-46.318,4.717-4.935,8.648-10.622,13.361-15.562,8.44-8.845,17.988-11.13,27.559-3.708,11.825,9.171,20.611,7.739,33.401.705,12.332-6.782,19.787-12.159,19.001-27.672-.623-12.279,7.246-18.616,19.834-20.31,10.144-1.365,20.382-2.324,30.607-2.717,13.115-.505,22.071,5.364,23.53,18.046,1.58,13.729,8.617,17.996,20.878,22.184,13.83,4.723,23.61,5.776,34.316-5.991,7.49-8.232,17.504-7.341,26.613-.405,8.736,6.651,17.212,13.713,25.261,21.178,8.741,8.107,10.527,18.647,2.978,28.348-8.33,10.704-7.777,18.627-1.601,30.929,6.596,13.138,13.484,18.698,27.904,17.956,10.748-.553,18.013,7.051,19.826,17.972,1.839,11.079,2.807,22.288,2.937,33.522.14,12.099-4.972,20.601-16.943,22.091-15.223,1.895-20.491,9.624-25.003,23.569-4.095,12.654-3.134,20.073,6.406,28.886,11.007,10.167,10.686,20.734,1.207,32.533-5.966,7.426-12.102,14.726-18.415,21.858-4.513,5.098-10.016,8.589-17.701,8.018Zm-175.989-138.955c-.152,35.528,28.022,64.336,63.061,64.481,36.177.15,65.258-28.357,64.85-65.201-.394-35.684-29.671-62.752-63.325-62.915-35.969-.174-64.434,27.889-64.586,63.635Z"/>
      <path class="d" d="m293.234,745.824c-4.122-.407-8.284-.576-12.357-1.268-11.219-1.905-17.077-8.084-18.755-19.41-.393-2.656-.774-5.313-1.156-7.971-.139-.967-.141-1.974-.42-2.898-1.839-6.11-25.75-14.176-30.832-10.421-1.965,1.452-3.839,3.035-5.864,4.395-10.812,7.261-19.694,6.747-29.229-1.992-4.497-4.121-8.815-8.486-12.821-13.083-8.452-9.701-9.235-20.286-.683-29.793,6.514-7.242,8.418-13.607,2.512-21.698-.969-1.328-1.474-3.125-1.783-4.782-1.329-7.117-5.425-9.69-12.715-10.251-15.965-1.229-22.873-9.447-22.931-25.463-.013-3.665.005-7.331.031-10.996.123-17.334,7.058-25.485,24.215-26.633,6.633-.444,8.636-3.493,11.2-8.909,5.711-12.063,8.772-22.664-1.924-34.207-5.313-5.734-2.868-13.965,1.538-20.498,4.136-6.132,9.704-10.995,15.147-15.874,10.84-9.718,21.033-10.198,32.072-.492,5.468,4.808,9.988,5.027,15.591,1.486,1.026-.649,2.132-1.339,3.292-1.584,12.307-2.603,19.627-8.807,21.001-22.56.828-8.278,8.34-13.143,16.98-13.615,8.272-.452,16.644-.495,24.884.253,10.751.976,17.783,8.909,18.495,21.145.411,7.046,3.186,10.918,9.92,12.261.947.189,1.947.487,2.74,1.01,10.359,6.837,19.755,8.245,30.625-.63,7.071-5.774,17.516-2.333,25.141,5.226,3.989,3.955,7.877,8.022,11.64,12.192,8.557,9.485,9.434,20.097.967,29.701-5.637,6.394-4.924,11.293-2.264,18.835,4.042,11.461,8.71,19.205,22.402,20.198,8.856.642,13.291,8.652,14.385,17.281,1.013,7.992,1.075,16.142-.159,24.116-1.871,12.088-9.082,18.717-22.103,19.292-7.152.315-10.927,3.015-12.286,9.729-.048.238-.095.497-.221.696-7.038,11.056-8.868,21.219,1.134,32.424,5.544,6.211,3.828,14.993-1.693,21.668-4.344,5.251-9.171,10.148-14.137,14.827-10.544,9.936-21.144,10.657-32.028,1.145-6.254-5.466-11.178-5.222-18.812-2.597-12.313,4.233-20.494,9.49-21.207,24.083-.39,7.993-7.49,12.625-15.656,14.372-4.602.985-9.199,1.081-13.874,1.292Zm3.199-202.674c-29.009-.088-52.196,22.396-52.518,50.924-.325,28.787,23.045,52.607,51.715,52.712,28.656.105,52.25-22.868,52.538-51.156.294-28.971-22.794-52.393-51.734-52.481Z"/>
    </g>
  </g>
</svg>