<?xml version="1.0" encoding="UTF-8"?>
<svg id="b" data-name="Layer 2" xmlns="http://www.w3.org/2000/svg" width="554.346" height="417.9" viewBox="0 0 554.346 417.9">
  <defs>
    <style>
      .d {
        fill: #133289;
      }
    </style>
  </defs>
  <g id="c" data-name="Layer 1">
    <polygon class="d" points="7.285 395.272 212.559 189.998 235.187 212.625 235.139 212.674 308.361 285.897 506.319 87.939 496.51 78.13 554.346 62.633 538.848 120.469 528.947 110.567 308.402 331.112 304.078 326.869 212.511 235.302 29.913 417.9 7.285 395.272"/>
    <g>
      <path class="d" d="m79.896,236.371c0-1.369-.01-2.752.167-4.104.195-1.484,1.28-2.037,2.69-2.031,1.415.006,2.469.586,2.667,2.065.165,1.229.157,2.486.158,3.731.008,17.479.006,34.958.006,52.438l34.659-34.659c0-6.62,0-13.239,0-19.859.002-36.798,0-73.596.006-110.394,0-1.371.007-2.747.122-4.111.038-.451.16-.829.341-1.15l.29-.198c.069-.183.151-.362.261-.532.276-.424.639-.794,1.081-1.046.479-.274,1.002-.394,1.524-.383l.154-.106c.043-.008.082-.021.127-.028,1.553-.241,2.771.315,3.164,1.907.326,1.323.446,2.703.59,4.066,2.868,27.167,5.714,54.336,8.592,81.502.96,9.064,6.927,14.475,14.949,13.656,8.139-.831,13.1-7.302,12.175-16.22-3.203-30.894-6.348-61.795-9.785-92.664-2.098-18.842-16.31-32.362-34.22-34.103H46.06c-16.665,1.91-30.358,14.076-32.999,31.491-4.788,31.568-8.759,63.261-12.933,94.919-.915,6.937,3.181,13.094,9.276,14.939,8.569,2.594,16.486-2.693,17.767-12.048,3.741-27.312,7.4-54.635,11.1-81.953.184-1.357.345-2.734.72-4.043.255-.892.772-1.424,1.444-1.673l.097.055c.188-.156.39-.278.624-.37.36-.141.823-.134,1.186-.005.407.144.765.371,1.068.68.263.268.495.587.658.926.115.238.197.468.261.705.449.394.724.968.778,1.725.107,1.49.117,2.99.117,4.486.005,68.281.004,136.563.006,204.844l34.668-34.668c0-19.262-.007-38.523-.003-57.785Z"/>
      <path class="d" d="m82.784,65.021c18.192-.036,32.421-14.339,32.414-32.584C115.191,14.195,100.959-.008,82.693,0c-18.222.007-32.43,14.263-32.417,32.528.013,18.202,14.346,32.529,32.508,32.493Z"/>
      <path class="d" d="m204.063,121.496c.184-1.357.345-2.734.72-4.043.255-.892.772-1.424,1.444-1.673l.097.055c.188-.156.39-.278.624-.37.36-.141.823-.134,1.186-.005.407.144.765.371,1.068.68.263.268.495.587.658.926.115.238.197.468.261.705.449.394.724.968.778,1.725.107,1.49.117,2.99.117,4.486,0,6.291,0,12.582,0,18.872l-6.604,26.79,8.146-8.146,8.485,8.485,14.143,14.143,8.494,8.494-.048.048,57.601,57.602h2.622c4.152,0,7.204-3.895,6.21-7.927l-24.024-97.448c0-7.112,0-14.223.001-21.335,0-1.371.007-2.747.122-4.111.038-.451.16-.829.341-1.15l.29-.198c.069-.183.151-.362.261-.532.276-.424.639-.794,1.081-1.046.479-.274,1.002-.394,1.524-.383l.154-.106c.043-.008.082-.021.127-.028,1.553-.241,2.771.315,3.164,1.907.326,1.323.446,2.703.59,4.066,2.868,27.167,5.714,54.336,8.592,81.502.96,9.064,6.927,14.475,14.949,13.656,8.139-.831,13.1-7.302,12.175-16.22-3.203-30.894-6.348-61.795-9.785-92.664-2.098-18.842-16.31-32.362-34.22-34.103h-73.556c-16.665,1.91-30.358,14.076-32.999,31.491-4.789,31.568-8.759,63.261-12.933,94.919-.319,2.421-.017,4.741.756,6.822l29.8-29.8c2.533-18.694,5.054-37.389,7.587-56.083Z"/>
      <path class="d" d="m248.576,65.021c18.192-.036,32.421-14.339,32.414-32.584C280.983,14.195,266.751-.008,248.485,0c-18.222.008-32.429,14.263-32.417,32.528.013,18.202,14.346,32.529,32.508,32.493Z"/>
      <path class="d" d="m358.755,203.449c3.741-27.312,7.4-54.635,11.1-81.953.184-1.357.345-2.734.72-4.043.255-.892.772-1.424,1.444-1.673l.097.055c.188-.156.39-.278.624-.37.36-.141.823-.134,1.186-.005.407.144.765.371,1.068.68.263.268.495.587.658.926.115.238.197.468.261.705.449.394.724.968.778,1.725.107,1.49.117,2.99.117,4.486.001,21.655.001,43.31.002,64.965l100.606-100.607c-6.265-7.979-15.59-13.159-26.217-14.192h-73.556c-16.665,1.91-30.358,14.076-32.999,31.491-4.788,31.568-8.759,63.261-12.933,94.919-.915,6.937,3.181,13.094,9.276,14.939,3.529,1.068,6.939.782,9.829-.557l6.417-6.417c.736-1.512,1.266-3.208,1.521-5.074Z"/>
      <path class="d" d="m414.368,65.021c18.192-.036,32.421-14.339,32.414-32.584C446.776,14.195,432.543-.008,414.277,0c-18.222.007-32.429,14.263-32.417,32.528.013,18.202,14.346,32.529,32.508,32.493Z"/>
    </g>
  </g>
</svg>