<?xml version="1.0" encoding="UTF-8"?>
<svg id="b" data-name="Layer 2" xmlns="http://www.w3.org/2000/svg" width="661.107" height="364.458" viewBox="0 0 661.107 364.458">
  <defs>
    <style>
      .d {
        fill: #133289;
      }
    </style>
  </defs>
  <g id="c" data-name="Layer 1">
    <g>
      <g>
        <path class="d" d="m163.62,200.914c-3.203-30.894-6.348-61.796-9.785-92.664-2.098-18.842-16.31-32.362-34.22-34.103H46.06c-16.665,1.91-30.358,14.076-32.999,31.491-4.788,31.568-8.759,63.261-12.933,94.919-.915,6.937,3.181,13.094,9.276,14.939,8.569,2.594,16.486-2.693,17.767-12.048,3.741-27.312,7.4-54.635,11.1-81.953.184-1.357.345-2.734.72-4.043.255-.892.772-1.424,1.444-1.673l.097.055c.188-.156.39-.278.624-.37.36-.141.823-.133,1.186-.005.407.144.765.371,1.068.68.263.268.495.587.658.926.115.238.197.468.261.705.449.394.724.968.778,1.725.107,1.49.117,2.99.117,4.486.005,72.847.004,145.694.006,218.542,0,1.621-.055,3.249.057,4.863.544,7.822,5.04,13.887,11.896,16.132,6.895,2.258,14.149.109,18.848-5.653,2.986-3.661,3.872-7.975,3.869-12.597-.023-36.299-.013-72.598-.005-108.897,0-1.369-.01-2.752.167-4.104.195-1.484,1.28-2.037,2.69-2.031,1.415.006,2.469.586,2.667,2.065.165,1.229.157,2.486.158,3.731.009,19.709.006,39.417.007,59.126,0,17.089-.09,34.179.036,51.267.097,13.174,12.482,21.648,24.096,16.513,7.654-3.384,10.525-9.83,10.526-17.845.003-37.047.001-74.095.001-111.142.002-36.798,0-73.596.006-110.394,0-1.371.007-2.747.122-4.111.038-.451.16-.829.341-1.15l.29-.198c.069-.183.151-.362.261-.532.276-.424.639-.794,1.081-1.046.479-.274,1.002-.394,1.524-.383l.154-.106c.043-.008.082-.021.127-.028,1.553-.241,2.771.315,3.164,1.907.326,1.323.446,2.703.59,4.066,2.868,27.167,5.714,54.336,8.592,81.502.96,9.064,6.927,14.475,14.949,13.656,8.139-.831,13.1-7.302,12.175-16.22Z"/>
        <path class="d" d="m82.784,65.021c-18.162.036-32.495-14.291-32.508-32.493C50.263,14.263,64.47.008,82.693,0c18.266-.008,32.499,14.195,32.505,32.437.007,18.245-14.222,32.548-32.414,32.584Z"/>
      </g>
      <g>
        <path class="d" d="m329.412,200.914c-3.203-30.894-6.348-61.796-9.785-92.664-2.098-18.842-16.31-32.362-34.22-34.103h-73.556c-16.665,1.91-30.358,14.076-32.999,31.491-4.789,31.568-8.759,63.261-12.933,94.919-.915,6.937,3.181,13.094,9.276,14.939,8.569,2.594,16.486-2.693,17.767-12.048,3.741-27.312,7.4-54.635,11.1-81.953.184-1.357.345-2.734.72-4.043.255-.892.772-1.424,1.444-1.673l.097.055c.188-.156.39-.278.624-.37.36-.141.823-.133,1.186-.005.407.144.765.371,1.068.68.263.268.495.587.658.926.115.238.197.468.261.705.449.394.724.968.778,1.725.107,1.49.117,2.99.117,4.486,0,6.291,0,12.582,0,18.872l-24.527,99.488c-.994,4.032,2.058,7.927,6.21,7.927h18.32c0,30.751.002,61.503.003,92.254,0,1.621-.055,3.249.057,4.863.544,7.822,5.04,13.887,11.896,16.132,6.895,2.258,14.149.109,18.848-5.653,2.986-3.661,3.872-7.975,3.869-12.597-.02-31.667-.011-63.333-.005-95h5.684c.003,14.963.004,29.927.005,44.89,0,17.089-.09,34.179.036,51.267.097,13.174,12.482,21.648,24.096,16.513,7.654-3.384,10.525-9.83,10.526-17.845.003-31.609.001-63.217.001-94.826h17.819c4.152,0,7.204-3.895,6.21-7.927l-24.024-97.448c0-7.112,0-14.223.001-21.335,0-1.371.007-2.747.122-4.111.038-.451.16-.829.341-1.15l.29-.198c.069-.183.151-.362.261-.532.276-.424.639-.794,1.081-1.046.479-.274,1.002-.394,1.524-.383l.154-.106c.043-.008.082-.021.127-.028,1.553-.241,2.771.315,3.164,1.907.326,1.323.446,2.703.59,4.066,2.868,27.167,5.714,54.336,8.592,81.502.96,9.064,6.927,14.475,14.949,13.656,8.139-.831,13.1-7.302,12.175-16.22Z"/>
        <path class="d" d="m248.576,65.021c18.192-.036,32.421-14.339,32.414-32.584C280.983,14.195,266.751-.008,248.485,0c-18.222.008-32.43,14.263-32.417,32.528.013,18.202,14.346,32.529,32.508,32.493Z"/>
      </g>
      <g>
        <path class="d" d="m495.205,200.914c-3.203-30.894-6.348-61.796-9.785-92.664-2.098-18.842-16.31-32.362-34.22-34.103h-73.556c-16.665,1.91-30.358,14.076-32.999,31.491-4.788,31.568-8.759,63.261-12.933,94.919-.915,6.937,3.181,13.094,9.276,14.939,8.569,2.594,16.486-2.693,17.767-12.048,3.741-27.312,7.4-54.635,11.1-81.953.184-1.357.345-2.734.72-4.043.255-.892.772-1.424,1.444-1.673l.097.055c.188-.156.39-.278.624-.37.36-.141.823-.133,1.186-.005.407.144.765.371,1.068.68.263.268.495.587.658.926.115.238.197.468.261.705.449.394.724.968.778,1.725.107,1.49.117,2.99.117,4.486.005,72.847.004,145.694.006,218.542,0,1.621-.055,3.249.057,4.863.544,7.822,5.04,13.887,11.896,16.132,6.895,2.258,14.149.109,18.848-5.653,2.986-3.661,3.872-7.975,3.869-12.597-.023-36.299-.013-72.598-.005-108.897,0-1.369-.01-2.752.167-4.104.195-1.484,1.28-2.037,2.69-2.031,1.415.006,2.469.586,2.667,2.065.165,1.229.157,2.486.158,3.731.009,19.709.006,39.417.007,59.126,0,17.089-.09,34.179.036,51.267.097,13.174,12.482,21.648,24.096,16.513,7.654-3.384,10.525-9.83,10.526-17.845.003-37.047.001-74.095.001-111.142.002-36.798,0-73.596.006-110.394,0-1.371.007-2.747.122-4.111.038-.451.16-.829.341-1.15l.29-.198c.069-.183.151-.362.261-.532.276-.424.639-.794,1.081-1.046.479-.274,1.002-.394,1.524-.383l.154-.106c.043-.008.082-.021.127-.028,1.553-.241,2.771.315,3.164,1.907.326,1.323.446,2.703.59,4.066,2.868,27.167,5.714,54.336,8.592,81.502.96,9.064,6.927,14.475,14.949,13.656,8.139-.831,13.1-7.302,12.175-16.22Z"/>
        <path class="d" d="m414.368,65.021c-18.162.036-32.495-14.291-32.508-32.493C381.848,14.263,396.055.008,414.277,0c18.266-.008,32.499,14.195,32.505,32.437.007,18.245-14.222,32.548-32.414,32.584Z"/>
      </g>
      <g>
        <path class="d" d="m660.997,200.914c-3.203-30.894-6.348-61.796-9.785-92.664-2.098-18.842-16.31-32.362-34.22-34.103h-73.556c-16.665,1.91-30.358,14.076-32.999,31.491-4.789,31.568-8.759,63.261-12.933,94.919-.915,6.937,3.181,13.094,9.276,14.939,8.569,2.594,16.486-2.693,17.767-12.048,3.741-27.312,7.4-54.635,11.1-81.953.184-1.357.345-2.734.72-4.043.255-.892.772-1.424,1.444-1.673l.097.055c.188-.156.39-.278.624-.37.36-.141.823-.133,1.186-.005.407.144.765.371,1.068.68.263.268.495.587.658.926.115.238.197.468.261.705.449.394.724.968.778,1.725.107,1.49.117,2.99.117,4.486,0,6.291,0,12.582,0,18.872l-24.527,99.488c-.994,4.032,2.058,7.927,6.21,7.927h18.32c0,30.751.002,61.503.003,92.254,0,1.621-.055,3.249.057,4.863.544,7.822,5.04,13.887,11.896,16.132,6.895,2.258,14.149.109,18.848-5.653,2.986-3.661,3.872-7.975,3.869-12.597-.02-31.667-.011-63.333-.005-95h5.684c.003,14.963.004,29.927.005,44.89,0,17.089-.09,34.179.036,51.267.097,13.174,12.482,21.648,24.096,16.513,7.654-3.384,10.525-9.83,10.526-17.845.003-31.609.001-63.217.001-94.826h17.819c4.152,0,7.204-3.895,6.21-7.927l-24.024-97.448c0-7.112,0-14.223.001-21.335,0-1.371.007-2.747.122-4.111.038-.451.16-.829.341-1.15l.29-.198c.069-.183.151-.362.261-.532.276-.424.639-.794,1.081-1.046.479-.274,1.002-.394,1.524-.383l.154-.106c.043-.008.082-.021.127-.028,1.553-.241,2.771.315,3.164,1.907.326,1.323.446,2.703.59,4.066,2.868,27.167,5.714,54.336,8.592,81.502.96,9.064,6.927,14.475,14.949,13.656,8.139-.831,13.1-7.302,12.175-16.22Z"/>
        <path class="d" d="m580.16,65.021c18.192-.036,32.421-14.339,32.414-32.584C612.568,14.195,598.335-.008,580.069,0c-18.222.008-32.43,14.263-32.417,32.528.013,18.202,14.346,32.529,32.508,32.493Z"/>
      </g>
    </g>
  </g>
</svg>