<?xml version="1.0" encoding="UTF-8"?>
<svg id="b" data-name="Layer 2" xmlns="http://www.w3.org/2000/svg" width="658.197" height="758.297" viewBox="0 0 658.197 758.297">
  <defs>
    <style>
      .d {
        fill: #06ace9;
      }
    </style>
  </defs>
  <g id="c" data-name="Layer 1">
    <g>
      <path class="d" d="m657.59,194.772c-3.384-30.131-20-51.788-46.742-65.742-2.285-1.192-2.897-2.44-2.504-4.993,1.651-10.712,1.902-21.548-.048-32.181-7.258-39.575-29.064-68.078-66.349-83.649-47.42-19.803-102.205-2.737-130.518,40.109-2.073,3.136-3.944,3.805-7.462,2.802-14.371-4.101-28.922-4.303-43.359-.51-34.686,9.113-59.2,37.947-62.87,73.839-.298,2.916-1.415,4.43-3.9,5.761-14.407,7.718-25.76,18.638-34.082,32.758-5.629,9.551-8.637,19.953-10.682,30.719v20.76c.161.506.399,1,.471,1.519,5.911,42.612,43.741,72.645,84.733,72.371,79.308-.53,158.622-.214,237.933-.114,20.198.026,38.395-5.744,54.012-18.45,23.731-19.308,34.782-44.596,31.367-74.998Zm-79.526,68.401c-5.051.294-10.087.491-15.138.492-36.718.007-73.435.004-110.153.004-38.979,0-77.958.046-116.938-.028-12.453-.024-24.329-2.553-34.9-9.537-15.684-10.363-24.924-24.818-26.933-43.591-3.085-28.823,14.723-53.164,40.696-62.441,8.462-3.023,7.932-3.105,7.586-12.067-.885-22.922,8.067-41.253,27.44-53.78,17.485-11.306,36.259-11.72,55.455-4.748,3.992,1.45,7.916,3.159,11.704,5.076,2.868,1.452,4.302.691,5.479-2.09,3.639-8.599,7.858-16.887,13.863-24.134,15.447-18.644,35.048-29.294,59.358-31.087,42.908-3.165,79.434,26.7,87.496,66.464,2.956,14.58,1.814,29.064-2.559,43.311-2.318,7.551-2.177,6.006,4.169,9.493,6.991,3.842,14.811,5.927,21.482,10.475,15.883,10.828,25.129,25.449,26.878,44.824,2.996,33.183-23.882,61.55-54.987,63.362Z"/>
      <path class="d" d="m399.858,404.684c-9.278-11.619-21.509-17.02-36.199-17.043-33.13-.052-66.26-.018-99.39-.018-72.78,0-145.56-.001-218.34.002-11.701,0-22.245,3.122-31.245,10.995-7.722,6.756-12.222,15.261-14.684,25.031v219.571c4.423,22.082,23.842,37.245,48.331,36.447,31.367-1.022,62.793-.218,94.193-.292,3.259-.008,4.567.643,3.798,4.327-3.721,17.823-7.28,35.682-10.72,53.562-.601,3.122-1.956,4.183-5.055,4.146-10.909-.129-21.82-.077-32.73-.036-7.538.029-11.758,3.175-11.666,8.569.091,5.288,4.167,8.334,11.463,8.336,71.183.02,142.366.02,213.55,0,7.309-.002,11.375-3.024,11.486-8.312.113-5.394-4.115-8.563-11.64-8.593-10.91-.042-21.822-.093-32.73.035-3.08.036-4.474-.979-5.076-4.121-3.352-17.491-6.917-34.941-10.39-52.409-1.083-5.445-1.055-5.458,4.638-5.459,33.13-.009,66.261.095,99.39-.057,22.62-.104,42.151-19.567,42.185-42.134.104-69.054.057-138.109.016-207.163-.006-9.514-3.25-17.955-9.183-25.386Zm-147.218,336.716c-16.082-.083-32.165-.038-48.248-.038-15.949.001-31.899.013-47.849-.006-4.724-.006-4.811-.108-3.902-4.708,3.502-17.713,7.081-35.411,10.507-53.138.576-2.979,1.756-4.174,4.974-4.157,24.189.128,48.38.129,72.57,0,3.231-.017,4.386,1.204,4.96,4.173,3.451,17.858,6.935,35.711,10.673,53.511.78,3.716-.433,4.381-3.686,4.364Zm139.961-106.189c-.232,15.715-11.413,27.126-27.118,27.712-.665.025-1.33.021-1.995.021-106.029,0-212.057.004-318.086-.003-11.917,0-21.116-4.682-26.547-15.668-1.733-3.506-2.559-7.28-2.629-11.176-.091-5.054.104-10.115-.09-15.164-.123-3.199,1.203-4.363,4.234-4.105,1.188.101,2.393.012,3.59.012,60.132,0,120.263,0,180.395,0,60.664,0,121.328,0,181.992.001q6.266,0,6.27,6.395c.001,3.991.043,7.983-.016,11.973Zm.013-40.465c0,5.177-.019,5.193-5.386,5.194-60.938.004-121.877.002-182.815.002-60.672,0-121.345,0-182.017,0q-6.207,0-6.214-5.967-.01-8.8,8.939-8.801c12.241-.002,24.483.086,36.722-.049,7.043-.077,11.21-6.166,8.311-11.847-1.783-3.494-4.845-4.612-8.613-4.597-13.438.055-26.88-.138-40.313.111-4.101.076-5.143-1.193-5.13-5.193.135-43.508.059-87.017.101-130.525.013-14.159,7.558-24.195,20.622-27.826,2.746-.763,5.541-.671,8.32-.671,106.177-.022,212.354.105,318.53-.152,15.981-.039,29.089,11.544,29.021,29.061-.207,53.753-.073,107.507-.077,161.26Z"/>
      <path class="d" d="m254.787,524.389c-1.822-1.724-1.718-2.839.039-4.486,3.493-3.275,6.843-6.705,10.186-10.135,6.164-6.325,4.26-13.384-4.278-15.472-10.846-2.653-21.74-5.112-32.618-7.636-12.432-2.885-24.855-5.814-37.311-8.593-5.98-1.334-10.691,2.274-10.767,8.375.1.779.153,1.988.419,3.148,5.293,23.064,10.56,46.134,15.949,69.175,1.9,8.124,9.026,10.224,15.052,4.527,3.576-3.381,7.072-6.858,10.435-10.45,1.793-1.915,3.047-1.89,4.853.005,4.221,4.43,8.581,8.732,12.977,12.99,4.691,4.543,8.89,4.61,13.62.082,4.996-4.785,9.905-9.669,14.676-14.678,4.664-4.895,4.534-9.051-.215-13.902-4.282-4.374-8.573-8.744-13.017-12.949Zm-5.514,22.292c-1.899,1.852-3.213,2.258-5.21.141-4.01-4.253-8.175-8.366-12.387-12.422-5.39-5.19-9.515-5.168-14.804.066-2.164,2.141-4.096,4.516-6.134,6.785-.442-.154-.885-.308-1.328-.462-.896-3.841-1.79-7.682-2.688-11.521-2.209-9.438-4.399-18.881-6.647-28.311-.621-2.605-.698-3.987,2.888-3.102,12.246,3.023,24.554,5.8,36.872,8.521,3.496.772,3.563,1.883,1.064,4.074-1.695,1.486-3.258,3.134-4.791,4.792-4.449,4.81-4.462,8.959.063,13.629,4.254,4.39,8.558,8.739,12.975,12.963,1.824,1.745,2.071,2.953.127,4.848Z"/>
      <path class="d" d="m158.563,495.711c3.884-.855,6.15-3.865,6.186-7.733.036-3.875-2.159-6.732-5.995-7.928-2.468-.77-4.994-.59-7.513-.62-2.382.077-4.767-.143-7.128.509-4.015,1.108-6.725,4.188-6.724,7.847.001,3.927,2.694,7.237,6.933,8.06,4.73.919,9.529.903,14.242-.135Z"/>
      <path class="d" d="m162.598,449.453c-5.483-3.359-12.084.698-11.972,7.822.135.485.18,1.808.813,2.726,3.184,4.617,6.991,8.742,11.788,11.647,3.214,1.947,6.473.844,9.062-1.746,2.61-2.61,3.165-6.78,1.019-9.903-2.87-4.177-6.383-7.895-10.711-10.547Z"/>
      <path class="d" d="m161.608,505.037c-3.384,2.574-6.438,5.549-9.148,8.843-1.304,1.585-2.045,3.412-1.894,5.236.018,3.516,1.509,5.866,4.326,7.367,2.994,1.595,6.04,1.508,8.562-.724,3.273-2.897,6.438-5.965,9.302-9.261,2.72-3.13,2.36-7.655-.344-10.552-2.916-3.123-7.263-3.603-10.804-.909Z"/>
      <path class="d" d="m190.306,462.714c4.081-.16,7.429-3.321,7.854-7.632.194-1.972.033-3.978.033-5.968.003-2.124.171-4.263-.032-6.367-.421-4.356-3.713-7.313-7.95-7.379-4.269-.066-7.852,2.735-8.197,7.071-.347,4.349-.354,8.773.027,13.117.369,4.203,4.331,7.312,8.267,7.158Z"/>
      <path class="d" d="m213.936,472.536c.622-.139,1.49-.142,2.154-.512,5.446-3.034,9.844-7.348,12.868-12.663,1.832-3.22.625-6.818-2.427-9.262-2.893-2.318-6.187-2.702-9.23-.513-3.998,2.876-7.445,6.437-10.42,10.348-1.921,2.525-1.789,5.502-.273,8.285,1.525,2.802,4.003,4.142,7.329,4.316Z"/>
      <path class="d" d="m86.698,568.772c-4.482-.129-8.266,3.327-8.511,7.775-.239,4.333,3.777,8.511,8.238,8.571,4.429.059,8.117-3.575,8.182-8.063.067-4.555-3.367-8.152-7.909-8.282Z"/>
      <path class="d" d="m204.615,623.804c-9.046-.068-16.377,7.087-16.354,15.962.022,8.614,7.292,16.014,15.926,16.211,8.613.197,16.312-7.422,16.353-16.18.041-8.724-7.132-15.927-15.925-15.993Z"/>
      <path class="d" d="m93.308,355.276c-.001-.332-.012-.663-.012-.995,0-63.679,24.798-123.547,69.826-168.575,14.578-14.578,30.721-27.017,48.037-37.196l6.953,12.042,28.48-49.33h-56.96l8.525,14.766c-19.259,11.303-37.211,25.124-53.419,41.332-49.939,49.939-77.441,116.336-77.441,186.96,0,.332.011.663.012.995h26Z"/>
      <path class="d" d="m565.883,309.39c2.781,14.645,4.215,29.657,4.215,44.891,0,63.679-24.798,123.547-69.826,168.575-13.302,13.302-27.917,24.803-43.525,34.452l-7.33-12.696-28.48,49.329h56.961l-8.135-14.09c17.551-10.775,33.963-23.68,48.894-38.611,49.939-49.938,77.441-116.335,77.441-186.959,0-15.203-1.297-30.203-3.801-44.891h-26.415Z"/>
    </g>
  </g>
</svg>